                      <svg
                        fill="none"
                        width="152"
                        height="152"
                        viewBox="0 0 40 40"
                        xmlns="http://www.w3.org/2000/svg"
                      >
                        <rect
                          fill="#e5e8ed"
                          height="40"
                          rx="20"
                          width="40"
                        ></rect>
                        <circle cx="20" cy="20" fill="#e5e8ed" r="20"></circle>
                        <g fill="#fff">
                          <path d="m18.9418 21.5594v-.8751c-.2205-.0378-.4472-.0567-.6677-.0504-.5292 0-.8693.1826-.8693.6296 0 .1133.0189.2267.0693.3274.0126.0189.0189.0378.0315.0567.0252.0378.063.0755.1008.107.1259.1071.3086.1574.5291.1574.3276 0 .5921-.1574.8063-.3526z"></path>
                          <path d="m31.3197 23.9017c.1575-.1574.2394-.3589.359-.5982.1008-.2833.1638-.5792.2016-.8815.1197-.7618.1197-1.8763.1197-2.8774s0-2.1596-.1197-2.8774c-.0315-.3022-.1008-.5918-.2016-.8814-.0693-.2267-.1952-.4282-.359-.5982-.1323-.1637-.2961-.3022-.4788-.3966-.2519-.1449-.5165-.2519-.8-.3212-.5984-.1574-1.3606-.277-2.4-.3966-.8-.0819-1.7196-.1574-2.7212-.2393-1.0772-.0818-3.5213-.1196-4.8819-.1196s-3.8425.0378-4.9197.0818c-.9134.0315-1.8205.1134-2.7213.2393-1.0393.1196-1.8015.2393-2.39995.3967-.29606.0629-.57953.17-.83779.3211-.18268.1007-.34646.2392-.47875.3966-.15748.2015-.23936.3967-.35905.6423-.10079.2833-.16378.5792-.20157.8814-.11969.7178-.11969 1.8763-.11969 2.8774s0 2.1219.11969 2.8774c.03149.3023.10078.5919.20157.8815.06929.2267.19527.4282.35905.5982.13229.1637.29607.3022.47875.3966.25197.1448.51653.2519.8.3211.59844.1574 1.36064.2771 2.40004.3967.8.0818 1.7196.1574 2.7212.2393 1.0772.0377 3.5591.0818 4.9197.0818s3.7984-.0378 4.8819-.0818c.3905-.0063.7748-.0315 1.159-.0819l.3969-.0378.3591.2015 2.5196 1.4796v-1.9644l.8819-.277c.2394-.0756.4725-.1826.6803-.3212.1575-.1133.3024-.2329.441-.3588zm-19.2189-5.0245v3.7904h-1.2851v-4.6089h.4599c.4535 0 .8252.3652.8252.8185zm.0567-1.9266v.0126c-.0063.3777-.3213.6737-.6929.6674-.378.0063-.6929-.2959-.6992-.6737.0063-.3841.3212-.6863.7055-.6863h.0063c.3716-.0063.6803.3022.6803.68zm3.389 5.6666c-.2583.0819-.5355.1259-.8063.1259-.8882 0-1.4237-.3525-1.4237-1.3096v-2.5122h-.548v-.8626h.548v-1.2278h.9449c.1638 0 .3024.1134.3339.2708.0063.0252.0063.0441.0063.0692v.8878h.9323v.8626h-.9323v2.3611c0 .4408.1764.5604.5984.5604h.3528zm4.6992.0504h-.5418c-.4094 0-.5984-.0882-.6866-.4596-.3401.3714-.7874.51-1.3543.51-.8756 0-1.5181-.4723-1.5181-1.3852-.0063-.2393.0567-.4785.1701-.6863.063-.1133.1448-.2141.2393-.2959.3339-.3023.8504-.4534 1.4551-.4534.315-.0063.63.0315.9386.1071v-.3023c.0063-.1133-.0189-.2329-.0756-.3337-.0126-.0188-.0189-.0377-.0315-.0503-.0377-.0504-.0881-.0945-.1448-.1259-.0189-.0126-.0378-.0252-.063-.0315-.1764-.0693-.3591-.1008-.5481-.0945-.233 0-.4661.0315-.6866.1071-.189.0629-.3653.1448-.5291.2518h-.3654v-1.0515c.5607-.2644 1.1717-.3966 1.789-.384 1.1339 0 1.7827.3211 1.9276 1.1144.0189.1196.0315.2456.0315.3715zm2.1102 0h-1.285v-6.1515h.7811c.4283 0 .5039.1071.5039.7178zm5.0331 0h-1.1843l-1.222-1.9393-.4725.4911v1.4482h-1.285v-6.1515h.7811c.2079 0 .3339.0252.4031.126.0189.0251.0315.0566.0441.0818.0315.1008.0504.2015.0504.3022 0 .063.0063.1323.0063.2078v2.6696l1.6441-1.8511h1.052c0 .1511-.0378.2959-.1134.4219-.0315.0566-.0693.107-.1134.1574l-.0945.1007-1.0393 1.1271 1.3606 2.1533c.1134.2015.1827.4281.1827.6548zm1.8771 0h-1.285v-3.7904c0-.2203.0882-.4281.2394-.5792.0882-.0882.1952-.1511.3086-.1952.0126-.0063.0315-.0126.0504-.0126.0756-.0189.1449-.0315.2268-.0315h.4598zm.0567-5.7107v.0126c0 .0189 0 .0377-.0063.0629 0 .0063 0 .0126-.0063.0189 0 .0189-.0063.0315-.0063.0441v.0126c-.0063.0189-.0126.0378-.0126.0567-.0063.0125-.0063.0188-.0126.0314s-.0063.0252-.0126.0315c-.1133.2519-.3653.4156-.6425.4093h-.0063c-.3779 0-.6803-.3023-.6866-.6737v-.0063c.0063-.3778.315-.6863.6929-.68.378-.0126.6929.2896.6992.68z"></path>
                        </g>
                      </svg>