<svg
  fill="none"
  height="24"
  viewBox="0 0 24 24"
  width="24"
  xmlns="http://www.w3.org/2000/svg"
>
  <path
    clip-rule="evenodd"
    d="m12 24c6.6274 0 12-5.3726 12-12 0-6.62742-5.3726-12-12-12-6.62742 0-12 5.37258-12 12 0 6.6274 5.37258 12 12 12zm-2.47491-17.96c.63981-.02919.84401-.03609 2.47301-.03609s1.8333.0069 2.473.03609c.6384.02912 1.0745.13053 1.456.27881.3944.15326.7289.35836 1.0624.69181.3335.33348.5385.66798.6918 1.06241.1483.38152.2497.81754.2788 1.45597.0292.6398.0361.844.0361 2.473s-.0069 1.8333-.0361 2.473c-.0291.6385-.1305 1.0745-.2788 1.456-.1533.3944-.3583.7289-.6918 1.0624s-.668.5386-1.0624.6918c-.3815.1483-.8176.2497-1.456.2788-.6397.0292-.844.0361-2.473.0361s-1.8332-.0069-2.47301-.0361c-.63842-.0291-1.07445-.1305-1.45597-.2788-.39443-.1532-.72893-.3583-1.06241-.6918-.33345-.3335-.53854-.668-.69181-1.0624-.14828-.3815-.24969-.8175-.2788-1.456-.0292-.6397-.0361-.844-.0361-2.473s.0069-1.8332.0361-2.473c.02911-.63843.13052-1.07445.2788-1.45597.15327-.39443.35836-.72893.69181-1.06241.33348-.33345.66798-.53855 1.06241-.69181.38152-.14828.81755-.24969 1.45597-.27881zm4.89681 1.07962c-.6325-.02886-.8222-.03498-2.4238-.03498s-1.7913.00612-2.42374.03498c-.58481.02667-.90241.12438-1.11376.20652-.27998.10881-.47979.23879-.68967.4487-.20991.20988-.33988.40969-.44869.68966-.08214.21136-.17986.52895-.20653 1.11376-.02885.63244-.03497.82224-.03497 2.42374 0 1.6016.00612 1.7913.03497 2.4238.02667.5848.12439.9024.20653 1.1137.10881.28.23881.4798.44869.6897s.40969.3399.68967.4487c.21135.0821.52895.1798 1.11376.2065.63244.0289.82204.035 2.42374.035s1.7914-.0061 2.4238-.035c.5848-.0267.9024-.1244 1.1137-.2065.28-.1088.4798-.2388.6897-.4487s.3399-.4097.4487-.6897c.0821-.2113.1798-.5289.2065-1.1137.0289-.6325.035-.8222.035-2.4238 0-1.6015-.0061-1.7913-.035-2.42374-.0267-.58481-.1244-.9024-.2065-1.11376-.1088-.27997-.2388-.47978-.4487-.68966-.2099-.20991-.4097-.33989-.6897-.4487-.2113-.08214-.5289-.17985-1.1137-.20652zm-4.42319 4.88238c0 1.1042.89519 1.9994 1.99939 1.9994s1.9993-.8952 1.9993-1.9994-.8951-1.9994-1.9993-1.9994-1.99939.8952-1.99939 1.9994zm-1.08074 0c0-1.7011 1.37903-3.08012 3.08013-3.08012s3.0801 1.37902 3.0801 3.08012-1.379 3.0801-3.0801 3.0801-3.08013-1.379-3.08013-3.0801zm7.00203-3.20189c0 .39752-.3222.71976-.7198.71976-.3975 0-.7197-.32224-.7197-.71976 0-.39753.3222-.71979.7197-.71979.3976 0 .7198.32226.7198.71979z"
    fill="#313140"
    fill-rule="evenodd"
  ></path>
</svg>