<svg
  fill="none"
  height="24"
  viewBox="0 0 24 24"
  width="24"
  xmlns="http://www.w3.org/2000/svg"
>
  <path
    clip-rule="evenodd"
    d="m18.2565 9.84013c.1752 3.89037-2.7264 8.22877-7.8624 8.22877-1.56158 0-3.01598-.4584-4.24078-1.2432 1.468.1736 2.9328-.2336 4.09598-1.1448-1.21038-.0232-2.23278-.8224-2.58398-1.9224.4328.0832.8592.06 1.2488-.0464-1.3304-.2672-2.248-1.4656-2.2184-2.748.3728.2072.7992.332 1.2528.3464-1.232-.8224-1.58-2.45037-.856-3.69277 1.364 1.6728 3.40238 2.77437 5.70158 2.88957-.4032-1.72957.9096-3.39597 2.6944-3.39597.796 0 1.5152.336 2.0192.8736.6304-.1248 1.2224-.3552 1.7568-.672-.2064.6464-.6456 1.1888-1.216 1.5304.5584-.0664 1.092-.216 1.5888-.4352-.3704.5544-.84 1.0424-1.3808 1.432m-6.2565-9.84013c-6.6272 0-12 5.3728-12 12s5.3728 12 12 12 12-5.3728 12-12-5.3728-12-12-12z"
    fill="#313140"
    fill-rule="evenodd"
  ></path>
</svg>