<svg
  width="24"
  height="24"
  viewBox="0 0 24 24"
  fill="none"
  xmlns="http://www.w3.org/2000/svg"
>
  <path
    fill-rule="evenodd"
    clip-rule="evenodd"
    d="M5.15579 6.5H19.1684C19.5306 6.5 19.8242 6.79361 19.8242 7.15579V16.8568C19.8242 16.8899 19.8218 16.9223 19.8171 16.9541C19.8184 16.9153 19.8191 16.8764 19.8191 16.8373C19.8191 15.3667 18.8452 14.1236 17.5072 13.7176C18.3246 13.3805 18.9 12.5758 18.9 11.6367C18.9 10.3941 17.8926 9.38672 16.65 9.38672C15.4073 9.38672 14.4 10.3941 14.4 11.6367C14.4 12.5481 14.9418 13.333 15.721 13.6866C14.6114 13.9812 13.7341 14.8464 13.4225 15.949C13.0222 14.3278 11.7485 13.0508 10.1292 12.6458C11.0388 12.2449 11.6739 11.3353 11.6739 10.2774C11.6739 8.84865 10.5157 7.69043 9.08695 7.69043C7.65822 7.69043 6.5 8.84865 6.5 10.2774C6.5 11.3191 7.11575 12.217 8.00316 12.627C6.03711 13.0816 4.56135 14.8168 4.50187 16.9067C4.50063 16.8902 4.5 16.8736 4.5 16.8568V7.15579C4.5 6.79361 4.79361 6.5 5.15579 6.5ZM21.3212 16.9718C21.3232 16.9337 21.3242 16.8954 21.3242 16.8568V7.15579C21.3242 5.96518 20.359 5 19.1684 5H5.15579C3.96518 5 3 5.96518 3 7.15579V16.8568C3 16.8954 3.00101 16.9337 3.00301 16.9718H1.75C1.33579 16.9718 1 17.3076 1 17.7218C1 18.136 1.33579 18.4718 1.75 18.4718H22.25C22.6642 18.4718 23 18.136 23 17.7218C23 17.3076 22.6642 16.9718 22.25 16.9718H21.3212ZM6.00071 16.9718C6.03588 15.3305 7.3774 14.0107 9.02716 14.0107C10.6769 14.0107 12.0184 15.3305 12.0536 16.9718H6.00071ZM10.1739 10.2774C10.1739 10.8777 9.68725 11.3643 9.08695 11.3643C8.48664 11.3643 8 10.8777 8 10.2774C8 9.67707 8.48664 9.19043 9.08695 9.19043C9.68725 9.19043 10.1739 9.67707 10.1739 10.2774ZM17.4 11.6367C17.4 12.0509 17.0642 12.3867 16.65 12.3867C16.2357 12.3867 15.9 12.0509 15.9 11.6367C15.9 11.2225 16.2357 10.8867 16.65 10.8867C17.0642 10.8867 17.4 11.2225 17.4 11.6367ZM18.3191 16.8373C18.3191 16.8498 18.319 16.8623 18.3187 16.8747H14.8004L14.8 16.8499L14.8 16.8373C14.8 15.8655 15.5878 15.0777 16.5596 15.0777C17.5313 15.0777 18.3191 15.8655 18.3191 16.8373Z"
    fill="#313140"
  ></path>
</svg>