<svg
  fill="none"
  height="24"
  viewBox="0 0 24 24"
  width="24"
  xmlns="http://www.w3.org/2000/svg"
>
  <path
    clip-rule="evenodd"
    d="m18.0875 13.2971c.5595.5474 1.1518 1.0612 1.6535 1.6632.2215.2673.4318.5434.5924.854.2271.4415.0208.9263-.3741.9528l-2.4586-.0016c-.6341.0538-1.1406-.2023-1.5668-.6365-.3395-.346-.6558-.7152-.9825-1.074-.134-.1461-.2745-.2842-.443-.3933-.3348-.2176-.6261-.1509-.8188.199-.195.3564-.2392.7505-.2584 1.1479-.0265.5787-.2023.7312-.7826.7569-1.2434.0594-2.4233-.1292-3.51897-.7561-.96642-.5531-1.71612-1.3333-2.36789-2.217-1.26903-1.7202-2.24187-3.6113-3.11599-5.55454-.19665-.43746-.05297-.67264.43024-.68067.80267-.01605 1.60454-.01445 2.40722-.0008.32669.00481.54261.19184.66783.50006.43424 1.06676.96481 2.08135 1.63184 3.02285.17739.2513.35799.5009.61645.6775.28495.195.50248.1308.63657-.187.085-.2007.122-.4182.142-.6333.0634-.7425.0715-1.48339-.0401-2.22346-.0682-.46154-.3283-.76013-.78904-.84842-.23518-.04335-.20067-.13164-.08588-.26569.19745-.23117.38287-.37485.75372-.37485h2.7789c.4374.08589.5345.28254.5947.72321l.0024 3.08711c-.004.1701.0851.675.3926.7882.2448.0811.4069-.1156.5546-.2721.6654-.7064 1.1406-1.5403 1.5644-2.40481.1886-.38047.3508-.77459.5073-1.1687.1164-.29298.2986-.43666.6285-.43023l2.6737.0024c.0803 0 .1605.00081.2368.01365.4511.07706.5747.2713.4351.71117-.2192.6911-.6454 1.26582-1.0636 1.84372-.4455.6181-.9223 1.2137-1.3653 1.8341-.4062.5675-.3741.8533.1308 1.3453m-6.0867-13.2971c-6.62769 0-12.0008 5.37151-12.0008 12.0008 0 6.6269 5.37311 11.9992 12.0008 11.9992 6.6277 0 11.9992-5.3723 11.9992-11.9992 0-6.62929-5.3715-12.0008-11.9992-12.0008"
    fill="#313140"
    fill-rule="evenodd"
  ></path>
</svg>