<svg
  fill="none"
  height="24"
  viewBox="0 0 24 24"
  width="24"
  xmlns="http://www.w3.org/2000/svg"
>
  <path
    clip-rule="evenodd"
    d="m19.77 9.68075c.3243 0 .5876-.26327.5876-.58834v-.00241c-.0016-2.78198-2.2579-5.03662-5.0399-5.03662-.325 0-.5883.26326-.5883.58753 0 .32508.2633.58915.5883.58915 2.1335 0 3.8632 1.72891 3.8632 3.86235 0 .32507.2633.58834.5891.58834zm-2.9015-.43905c.0658.31704.3772.52172.6959.4567.317-.06581.5217-.37563.4567-.69348-.2689-1.31233-1.3027-2.34695-2.6151-2.61503-.3178-.06582-.6284.13966-.6934.4567-.0659.31866.1396.62928.4567.6951.8532.17417 1.5258.84679 1.6992 1.70001zm-13.22688 4.6602c0 2.7555 3.47065 4.5992 6.86668 4.5992 4.4515 0 7.4132-2.8013 7.4132-4.8906 0-1.2634-1.0458-1.9809-1.9849-2.2763l-.0022-.0007c-.2292-.0702-.3859-.1183-.2659-.4255.2617-.6702.289-1.24812.0064-1.65988-.5313-.77215-1.9865-.73041-3.6528-.02087 0 0-.5226.23357-.3885-.18862.256-.83877.2167-1.54109-.1822-1.94723-.903-.92064-3.30692.03532-5.36893 2.13264-1.5451 1.57156-2.44085 3.23706-2.44085 4.67786zm-3.64162-1.9007c0-6.62907 5.37293-12.0012 12.0004-12.0012 6.6275 0 11.9996 5.37213 11.9996 12.0012 0 6.6275-5.3721 11.9988-11.9996 11.9988-6.62747 0-12.0004-5.3713-12.0004-11.9988zm7.74695 2.1428c.17945.8883 1.18717 1.4348 2.25288 1.2215 1.06487-.2148 1.78427-1.1086 1.60637-1.997-.1786-.8891-1.1879-1.4355-2.25285-1.2207-1.06571.214-1.78506 1.1086-1.6064 1.9962zm-2.13719-.0684c-.17082-1.7468 1.83443-3.3761 4.47914-3.6395 2.6462-.2635 4.9289.94 5.1005 2.6877.1716 1.7468-1.8329 3.3761-4.4791 3.6403-2.64471.2619-4.92814-.9401-5.10054-2.6885z"
    fill="#313140"
    fill-rule="evenodd"
  ></path>
</svg>