<svg
  fill="none"
  height="24"
  viewBox="0 0 24 24"
  width="24"
  xmlns="http://www.w3.org/2000/svg"
>
  <path
    clip-rule="evenodd"
    d="m16.0152 16.8592c1.5744 0 2.852-1.2768 2.852-2.852v-4.0144c0-1.5744-1.2776-2.852-2.852-2.852h-8.0304c-1.5744 0-2.852 1.2776-2.852 2.852v4.0144c0 1.5752 1.2776 2.852 2.852 2.852zm-16.0152-4.8592c0-6.6272 5.3728-12 12-12s12 5.3728 12 12-5.3728 12-12 12-12-5.3728-12-12zm10.6165-1.5838 3.7024 1.9049c.1104.0568.108.217-.0032.2714l-3.7016 1.792c-.0994.0489-.2137-.0248-.2137-.1361v-3.6969c0-.1129.1175-.1858.2161-.1353z"
    fill="#313140"
    fill-rule="evenodd"
  ></path>
</svg>